<svg width="24" height="24" viewBox="0 0 24 24" fill="none" xmlns="http://www.w3.org/2000/svg">
<rect width="24" height="24" fill="#FFFDF7"/>
<path d="M5.50531 10.6244C5.37997 11.9106 5.38081 12.2322 5.50531 12.7626C5.70536 13.6148 6.06306 14.3604 6.37389 14.8708C6.7092 15.4214 7.3808 15.9856 8.08513 16.5566C8.56457 16.9452 9.29619 17.2514 10.2298 17.6044C10.9728 17.8853 12.0418 17.943 13.1692 17.9971C13.7153 18.0234 14.0673 17.9216 14.5108 17.7884C14.9479 17.6572 15.6242 17.1685 16.4048 16.5464C17.1613 15.9436 17.3997 15.1493 17.7079 14.2147C17.893 13.6538 18.0187 12.8813 18.1182 11.8319C18.2177 10.7826 18.2741 10.0507 18.2808 9.2594" stroke="#09543D" stroke-linecap="round"/>
<path d="M5.34109 10.7762C5.32944 10.7778 5.13549 10.8045 4.82055 10.8618C4.62449 10.8975 4.4334 11.1332 4.2118 11.4218C3.9776 11.7268 4.12981 12.4273 4.28402 12.9198C4.57766 13.3126 4.99469 13.6552 5.31556 13.8019C5.40199 13.8265 5.50367 13.8453 5.69777 13.8836" stroke="#09543D" stroke-linecap="round"/>
<path d="M18.3961 10.4929C18.4549 10.4489 18.8557 10.3756 19.2081 10.4518C19.5146 10.5182 19.6795 10.9153 19.7941 11.3526C19.9261 11.8561 19.8038 12.2618 19.7044 12.3971C19.3608 12.6943 18.7793 12.971 18.3219 13.1164C18.2399 13.1409 18.1725 13.1667 18.0945 13.2014" stroke="#09543D" stroke-linecap="round"/>
<path d="M12.59 12.5962C12.5787 12.7649 12.5397 13.2898 12.2987 13.9882C12.255 14.1147 12.3812 14.1413 12.4876 14.1579C12.594 14.1745 12.7121 14.1875 12.8286 14.2068C12.9451 14.226 13.0564 14.2511 13.3074 14.279" stroke="#09543D" stroke-linecap="round"/>
<path d="M11.8347 2.22733C11.8216 2.22733 10.9506 2.15775 9.37256 2.22736C7.95953 2.28968 7.18634 2.5716 6.80775 2.77692C6.07713 3.17317 5.55093 3.71187 5.27202 4.05808C4.94042 4.46968 4.56337 5.41916 3.99424 7.49989C3.61304 8.89354 3.33252 11.0533 3.15078 12.7243C2.96905 14.3953 2.96828 15.5325 3.06041 16.5571C3.15255 17.5817 3.33761 18.4592 3.50672 19.2101C3.67582 19.961 3.82335 20.5588 3.97536 21.1105" stroke="#09543D" stroke-linecap="round"/>
<path d="M11.9485 2.24611C11.9545 2.24611 12.4898 2.20078 13.4133 2.11161C14.0414 2.05097 14.9402 1.98006 16.0893 2.00521C17.3311 2.03239 17.9588 2.55865 18.5074 2.9974C18.8922 3.3051 19.2087 3.87808 19.5963 4.68291C19.8374 5.18354 20.0563 5.92744 20.2834 6.9135C20.5105 7.89955 20.7104 9.11956 20.8707 10.9246C21.031 12.7296 21.1455 15.0826 21.1998 16.3612C21.2147 18.0006 20.9471 18.6993 20.3387 19.8624C20.1259 20.2454 19.8439 20.7462 19.5534 21.2621" stroke="#09543D" stroke-linecap="round"/>
<path d="M3.98364 20.938C4.02414 21.0623 4.25843 21.4676 4.70168 21.7903C5.11239 22.0893 5.66061 22.0071 6.07887 21.9144C6.43779 21.8348 6.72793 21.8334 7.13873 21.8493C7.31227 21.856 7.68482 21.5133 8.21353 21.1712C8.4893 20.9928 8.96796 21.407 9.42031 21.5906C10.0523 21.847 10.8395 21.1795 11.4923 21.173C12.079 21.1671 12.5028 21.6882 13.0047 21.8195C13.3645 21.9136 14.2527 21.451 14.9082 21.2443C15.2524 21.1358 15.6082 21.5108 16.0193 21.5809C16.6315 21.6852 17.2058 21.3877 17.8178 21.0482C18.2718 20.9286 18.858 21.0463 19.3931 21.0938C19.4965 21.0855 19.5791 21.0682 19.7573 21.0503" stroke="#09543D" stroke-linecap="round"/>
<path d="M12.7251 4.01453C12.723 4.44811 12.6994 5.37093 12.5875 5.60662C12.5035 5.78363 12.0494 6.2095 11.2852 6.90666C10.8928 7.26462 10.4459 7.57981 9.74374 7.99832C9.04162 8.41683 8.08632 8.91601 7.37201 9.35175C6.65771 9.78749 5.77054 10.4401 5.46474 10.7003M4.55472 13.2029C4.45751 13.7443 4.38024 14.1083 4.26553 14.7667C4.15083 15.4251 4.02724 15.8889 3.8999 16.3667" stroke="#09543D" stroke-linecap="round"/>
<path d="M12.7324 5.67566C12.7605 5.72735 12.9701 5.97374 13.5389 6.43214C13.9418 6.75691 14.6298 7.20022 15.3609 7.6048C16.0921 8.00938 16.859 8.34428 17.3314 8.56304C17.9667 8.85721 18.1521 8.99963 18.2738 9.13693C18.5183 9.41298 18.6697 9.65214 18.9631 10.397M19.3423 12.7479C19.3154 13.1535 19.2879 14.0348 19.2544 14.2911C19.221 14.5475 19.2169 14.6643 19.2127 14.7846" stroke="#09543D" stroke-linecap="round"/>
<path d="M10.0154 15.4376C10.0224 15.4816 10.1598 15.6831 10.4995 15.9241C10.7409 16.0954 11.2699 16.1782 11.9666 16.266C12.3121 16.3095 12.6474 16.2929 13.0433 16.2353C13.4392 16.1778 13.8871 16.0648 14.2044 15.9705C14.5216 15.8762 14.6946 15.8039 14.9418 15.6695" stroke="#09543D" stroke-linecap="round"/>
<path d="M9.63752 9.91726C9.63752 9.91618 9.63752 9.91511 9.63752 10.0111C9.63752 10.107 9.63752 10.3001 9.63601 10.3528C9.6345 10.4056 9.63148 10.3122 9.62259 10.1811C9.6137 10.0499 9.59904 9.88383 9.5916 9.80436C9.58415 9.72489 9.58436 9.7371 9.59443 9.82665C9.6045 9.9162 9.62443 10.0827 9.6415 10.1719C9.65857 10.2611 9.67219 10.268 9.69119 10.2714C9.7102 10.2748 9.73418 10.2745 9.84143 10.2536C9.94868 10.2327 10.1385 10.1911 10.231 10.1699C10.3235 10.1487 10.3129 10.1492 10.2664 10.1604C10.1371 10.1914 10.0174 10.2304 9.97272 10.2576C9.9593 10.2657 9.98167 10.2809 10.1124 10.2978C10.2432 10.3146 10.486 10.3374 10.5645 10.3639C10.6193 10.3823 10.3923 10.4807 10.2898 10.5335C10.1958 10.5818 10.1674 10.6339 10.1594 10.6667C10.1497 10.7072 10.2795 10.6879 10.3814 10.6673C10.4907 10.6453 10.5642 10.573 10.5858 10.5528C10.592 10.547 10.5829 10.5451 10.5668 10.5532C10.5243 10.5746 10.4629 10.6317 10.3821 10.713C10.3385 10.7568 10.2948 10.811 10.2556 10.8642C10.2163 10.9173 10.1841 10.9692 10.1511 11.0391C10.1181 11.1089 10.0852 11.1952 10.0652 11.2603C10.0331 11.3648 10.033 11.42 10.0374 11.4364C10.0392 11.443 10.0505 11.4409 10.0582 11.4329C10.0772 11.4135 10.0838 11.3683 10.1015 11.3326C10.1088 11.3178 10.1365 11.3299 10.2712 11.4316C10.4058 11.5332 10.6526 11.7292 10.6636 11.7572C10.6746 11.7851 10.4422 11.6391 10.3251 11.567C10.2079 11.4948 10.2129 11.501 10.2708 11.5468C10.3286 11.5927 10.4392 11.678 10.3642 11.639C10.2891 11.6 10.0251 11.4341 9.86914 11.3321C9.67003 11.2021 9.6265 11.1554 9.62185 11.1423C9.62017 11.1376 9.62993 11.136 9.63729 11.1427C9.68651 11.1875 9.64492 11.2996 9.56156 11.4712C9.497 11.604 9.36632 11.8193 9.34088 11.8822C9.31544 11.945 9.39385 11.8462 9.43418 11.7994C9.47451 11.7526 9.47439 11.7608 9.4565 11.8108C9.4386 11.8608 9.40294 11.9525 9.39056 11.9745C9.37818 11.9965 9.39016 11.9461 9.49856 11.6939C9.60696 11.4417 9.81141 10.9894 9.91981 10.7515C10.0282 10.5137 10.0343 10.504 10.0374 10.5048C10.0497 10.5084 10.031 10.561 9.99259 10.6615C9.92406 10.8409 9.85387 10.9548 9.84143 10.9562C9.80362 10.9607 9.84195 10.7937 9.86549 10.6399C9.87409 10.5837 9.86915 10.571 9.85827 10.5667C9.8474 10.5623 9.82902 10.5664 9.70971 10.6547C9.5904 10.7429 9.37072 10.9153 9.26138 10.9996C9.15203 11.0839 9.1597 11.0749 9.1862 11.0517C9.25666 10.99 9.31245 10.9485 9.32281 10.947C9.36423 10.941 9.25669 11.0899 9.23261 11.1725C9.22392 11.2023 9.23267 11.2325 9.24512 11.2556C9.25701 11.2776 9.29026 11.279 9.31874 11.2798C9.34558 11.2806 9.36877 11.2722 9.38637 11.2566C9.39582 11.2483 9.39921 11.2324 9.39765 11.2134C9.39408 11.17 9.34498 11.115 9.26378 11.0453C9.21793 11.0059 9.15715 10.9651 9.09026 10.9242C9.02336 10.8832 8.95077 10.8451 8.84734 10.8075C8.7439 10.7698 8.61181 10.7339 8.64438 10.7227C8.67696 10.7115 8.8782 10.7262 8.88761 10.7438C8.89702 10.7615 8.7085 10.7816 8.60766 10.7919C8.50683 10.8022 8.49939 10.8021 8.5015 10.7978C8.50361 10.7934 8.51548 10.7849 8.65827 10.7085C8.80105 10.6321 9.07439 10.4881 9.22016 10.4121C9.36594 10.3361 9.37587 10.3325 9.38611 10.3287" stroke="#FECA05" stroke-width="0.762489" stroke-linecap="round"/>
<path d="M10.537 11.1195C10.537 11.1187 10.537 11.118 10.7191 11.3288C10.9013 11.5396 11.2656 11.9619 11.4303 12.1754C11.595 12.389 11.5489 12.3809 11.277 12.3174C11.0051 12.2539 10.5087 12.1353 10.2414 12.0694C9.95071 11.9939 9.90969 11.9756 9.86677 11.9557C9.84087 11.9443 9.8066 11.9304 9.76709 11.9103" stroke="#FECA05" stroke-width="0.62499" stroke-linecap="round"/>
<path d="M8.88985 11.4265C8.88913 11.4257 8.8884 11.425 8.86886 11.776C8.84931 12.127 8.81098 12.8297 8.79479 13.1825C8.7786 13.5353 8.78572 13.5168 8.96649 13.2604C9.14725 13.004 9.50145 12.5103 9.86798 11.9959" stroke="#FECA05" stroke-width="0.62499" stroke-linecap="round"/>
<path d="M10.3639 10.0637C10.3631 10.0644 10.3624 10.0651 10.5943 10.0658C10.8261 10.0666 11.2906 10.0673 11.5157 10.0816C11.7408 10.0959 11.7125 10.1237 11.5021 10.3033C11.2918 10.4828 10.9002 10.8131 10.4968 11.1534" stroke="#FECA05" stroke-width="0.62499" stroke-linecap="round"/>
<path d="M8.93044 10.1938C8.93185 10.1938 8.89786 10.202 8.59086 10.3336C8.31607 10.4514 7.80977 10.6957 7.55672 10.8221C7.30366 10.9484 7.32178 10.9553 7.56828 11.0054C7.81478 11.0556 8.28911 11.1487 8.77782 11.2447" stroke="#FECA05" stroke-width="0.62499" stroke-linecap="round"/>
<path d="M9.19385 10.159C9.19385 10.1524 9.19642 9.87685 9.21723 9.38151C9.22663 9.15783 9.26931 8.99256 9.30034 8.91669C9.33138 8.84082 9.3586 8.85992 9.51295 9.05135C9.6673 9.24277 9.94796 9.60594 10.2371 9.98011" stroke="#FECA05" stroke-width="0.62499" stroke-linecap="round"/>
<path d="M15.1124 9.71706C15.1124 9.71599 15.1124 9.71491 15.1124 9.81087C15.1124 9.90684 15.1124 10.0999 15.1109 10.1526C15.1094 10.2054 15.1063 10.112 15.0974 9.9809C15.0886 9.84975 15.0739 9.68364 15.0664 9.60417C15.059 9.5247 15.0592 9.5369 15.0693 9.62645C15.0794 9.716 15.0993 9.88253 15.1164 9.97174C15.1334 10.061 15.147 10.0678 15.166 10.0712C15.1851 10.0746 15.209 10.0743 15.3163 10.0534C15.4235 10.0325 15.6133 9.9909 15.7058 9.9697C15.7983 9.94851 15.7878 9.94897 15.7412 9.96016C15.6119 9.99124 15.4922 10.0303 15.4476 10.0574C15.4342 10.0656 15.4565 10.0807 15.5873 10.0976C15.7181 10.1144 15.9609 10.1372 16.0394 10.1637C16.0942 10.1822 15.8671 10.2805 15.7646 10.3333C15.6707 10.3816 15.6422 10.4337 15.6343 10.4666C15.6246 10.507 15.7543 10.4877 15.8563 10.4671C15.9656 10.4451 16.0391 10.3728 16.0607 10.3526C16.0669 10.3468 16.0577 10.3449 16.0416 10.353C15.9992 10.3744 15.9377 10.4315 15.857 10.5128C15.8134 10.5566 15.7697 10.6108 15.7304 10.664C15.6911 10.7172 15.659 10.769 15.626 10.8389C15.5929 10.9087 15.56 10.9951 15.54 11.0601C15.5079 11.1646 15.5079 11.2198 15.5123 11.2362C15.514 11.2429 15.5253 11.2407 15.5331 11.2328C15.552 11.2133 15.5586 11.1681 15.5763 11.1324C15.5836 11.1176 15.6114 11.1297 15.746 11.2314C15.8807 11.3331 16.1275 11.529 16.1385 11.557C16.1494 11.5849 15.9171 11.4389 15.7999 11.3668C15.6827 11.2946 15.6877 11.3008 15.7456 11.3466C15.8035 11.3925 15.9141 11.4779 15.839 11.4388C15.764 11.3998 15.5 11.2339 15.344 11.132C15.1449 11.0019 15.1014 10.9552 15.0967 10.9421C15.095 10.9374 15.1048 10.9358 15.1121 10.9425C15.1614 10.9873 15.1198 11.0994 15.0364 11.271C14.9719 11.4038 14.8412 11.6191 14.8157 11.682C14.7903 11.7448 14.8687 11.646 14.909 11.5992C14.9494 11.5524 14.9492 11.5606 14.9314 11.6106C14.9135 11.6606 14.8778 11.7523 14.8654 11.7743C14.853 11.7963 14.865 11.7459 14.9734 11.4937C15.0818 11.2415 15.2863 10.7892 15.3947 10.5513C15.5031 10.3135 15.5092 10.3038 15.5122 10.3046C15.5246 10.3082 15.5059 10.3608 15.4674 10.4614C15.3989 10.6407 15.3287 10.7546 15.3163 10.756C15.2785 10.7605 15.3168 10.5935 15.3403 10.4397C15.3489 10.3835 15.344 10.3708 15.3331 10.3665C15.3223 10.3621 15.3039 10.3662 15.1846 10.4545C15.0653 10.5428 14.8456 10.7151 14.7362 10.7994C14.6269 10.8837 14.6346 10.8747 14.661 10.8515C14.7315 10.7898 14.7873 10.7483 14.7977 10.7468C14.8391 10.7408 14.7315 10.8897 14.7075 10.9723C14.6988 11.0021 14.7075 11.0323 14.72 11.0554C14.7319 11.0774 14.7651 11.0788 14.7936 11.0796C14.8204 11.0804 14.8436 11.072 14.8612 11.0564C14.8707 11.0481 14.8741 11.0322 14.8725 11.0132C14.8689 10.9698 14.8198 10.9148 14.7386 10.8451C14.6928 10.8057 14.632 10.7649 14.5651 10.724C14.4982 10.683 14.4256 10.6449 14.3222 10.6073C14.2188 10.5696 14.0867 10.5337 14.1192 10.5225C14.1518 10.5113 14.3531 10.526 14.3625 10.5436C14.3719 10.5613 14.1834 10.5814 14.0825 10.5917C13.9817 10.602 13.9742 10.6019 13.9764 10.5976C13.9785 10.5932 13.9903 10.5847 14.1331 10.5083C14.2759 10.4319 14.5492 10.2879 14.695 10.2119C14.8408 10.1359 14.8507 10.1323 14.861 10.1285" stroke="#FECA05" stroke-width="0.762489" stroke-linecap="round"/>
<path d="M16.0121 10.9193C16.0121 10.9185 16.0121 10.9178 16.1942 11.1286C16.3764 11.3394 16.7407 11.7617 16.9054 11.9752C17.0701 12.1888 17.024 12.1807 16.7521 12.1172C16.4802 12.0537 15.9838 11.9351 15.7165 11.8692C15.4258 11.7937 15.3848 11.7754 15.3419 11.7555C15.316 11.7441 15.2817 11.7303 15.2422 11.7101" stroke="#FECA05" stroke-width="0.62499" stroke-linecap="round"/>
<path d="M14.3649 11.2263C14.3642 11.2255 14.3635 11.2248 14.344 11.5758C14.3244 11.9268 14.2861 12.6295 14.2699 12.9823C14.2537 13.3351 14.2608 13.3166 14.4416 13.0602C14.6224 12.8038 14.9765 12.3101 15.3431 11.7957" stroke="#FECA05" stroke-width="0.62499" stroke-linecap="round"/>
<path d="M15.8387 9.86353C15.838 9.86423 15.8373 9.86493 16.0691 9.86565C16.301 9.86636 16.7654 9.86706 16.9905 9.88136C17.2157 9.89566 17.1873 9.92354 16.977 10.1031C16.7666 10.2826 16.3751 10.6129 15.9717 10.9532" stroke="#FECA05" stroke-width="0.62499" stroke-linecap="round"/>
<path d="M14.4053 9.99365C14.4067 9.99365 14.3727 10.0018 14.0657 10.1334C13.7909 10.2512 13.2846 10.4955 13.0316 10.6219C12.7785 10.7482 12.7966 10.7551 13.0431 10.8052C13.2896 10.8554 13.764 10.9485 14.2527 11.0445" stroke="#FECA05" stroke-width="0.62499" stroke-linecap="round"/>
<path d="M14.6689 9.95884C14.6689 9.95225 14.6715 9.67665 14.6923 9.18132C14.7017 8.95764 14.7444 8.79237 14.7754 8.71649C14.8065 8.64062 14.8337 8.65973 14.988 8.85115C15.1424 9.04257 15.4231 9.40574 15.7122 9.77991" stroke="#FECA05" stroke-width="0.62499" stroke-linecap="round"/>
</svg>
