<svg width="20" height="21" viewBox="0 0 20 21" fill="none" xmlns="http://www.w3.org/2000/svg">
<path d="M3.00519 9.12443C2.87985 10.4106 2.88069 10.7322 3.00519 11.2626C3.20524 12.1148 3.56294 12.8604 3.87377 13.3708C4.20908 13.9214 4.88068 14.4856 5.58501 15.0566C6.06445 15.4452 6.79607 15.7514 7.72969 16.1044C8.47267 16.3853 9.54169 16.443 10.6691 16.4971C11.2152 16.5234 11.5671 16.4216 12.0107 16.2884C12.4478 16.1572 13.124 15.6685 13.9047 15.0464C14.6611 14.4436 14.8995 13.6493 15.2078 12.7147C15.3929 12.1538 15.5186 11.3813 15.6181 10.3319C15.7176 9.28259 15.774 8.55072 15.7806 7.7594" stroke="#09543D" stroke-linecap="round"/>
<path d="M2.84121 9.27619C2.82956 9.27776 2.63561 9.30441 2.32067 9.36173C2.12462 9.39741 1.93352 9.63309 1.71192 9.92171C1.47772 10.2267 1.62993 10.9272 1.78414 11.4198C2.07778 11.8126 2.49481 12.1552 2.81568 12.3018C2.90211 12.3264 3.00379 12.3452 3.19789 12.3836" stroke="#09543D" stroke-linecap="round"/>
<path d="M15.8959 8.99289C15.9547 8.94892 16.3555 8.87556 16.7079 8.95184C17.0144 9.01818 17.1793 9.41533 17.2939 9.85256C17.4258 10.3561 17.3036 10.7618 17.2041 10.8971C16.8606 11.1943 16.279 11.471 15.8216 11.6164C15.7396 11.6409 15.6722 11.6667 15.5942 11.7014" stroke="#09543D" stroke-linecap="round"/>
<path d="M10.0899 11.0961C10.0785 11.2649 10.0396 11.7898 9.79854 12.4882C9.7549 12.6146 9.88107 12.6412 9.98746 12.6578C10.0938 12.6744 10.212 12.6875 10.3285 12.7067C10.445 12.726 10.5563 12.751 10.8073 12.7789" stroke="#09543D" stroke-linecap="round"/>
<path d="M9.3347 0.727327C9.32161 0.727327 8.45063 0.657755 6.87256 0.727357C5.45953 0.78968 4.68634 1.0716 4.30775 1.27692C3.57713 1.67317 3.05093 2.21187 2.77202 2.55808C2.44042 2.96968 2.06337 3.91916 1.49424 5.99989C1.11304 7.39354 0.832522 9.55331 0.650785 11.2243C0.469047 12.8953 0.468277 14.0325 0.560413 15.0571C0.652549 16.0817 0.837614 16.9592 1.00672 17.7101C1.17582 18.461 1.32335 19.0588 1.47536 19.6105" stroke="#09543D" stroke-linecap="round"/>
<path d="M9.44849 0.746115C9.45448 0.746115 9.98979 0.700778 10.9133 0.611613C11.5414 0.55097 12.4402 0.480056 13.5893 0.505208C14.8311 0.532387 15.4588 1.05865 16.0074 1.4974C16.3922 1.8051 16.7087 2.37808 17.0963 3.18291C17.3374 3.68354 17.5563 4.42744 17.7834 5.4135C18.0105 6.39955 18.2104 7.61956 18.3707 9.42456C18.531 11.2296 18.6455 13.5826 18.6998 14.8612C18.7147 16.5006 18.4471 17.1993 17.8387 18.3624C17.6259 18.7454 17.3439 19.2462 17.0534 19.7621" stroke="#09543D" stroke-linecap="round"/>
<path d="M1.48376 19.438C1.52426 19.5623 1.75855 19.9676 2.20181 20.2903C2.61251 20.5893 3.16073 20.5071 3.579 20.4144C3.93791 20.3348 4.22805 20.3334 4.63885 20.3493C4.81239 20.356 5.18494 20.0133 5.71365 19.6712C5.98942 19.4928 6.46808 19.907 6.92043 20.0906C7.55239 20.347 8.33965 19.6795 8.99244 19.673C9.57911 19.6671 10.0029 20.1882 10.5048 20.3195C10.8647 20.4136 11.7528 19.951 12.4083 19.7443C12.7525 19.6358 13.1083 20.0108 13.5194 20.0809C14.1316 20.1852 14.7059 19.8877 15.3179 19.5482C15.7719 19.4286 16.3581 19.5463 16.8933 19.5938C16.9966 19.5855 17.0793 19.5682 17.2574 19.5503" stroke="#09543D" stroke-linecap="round"/>
<path d="M10.2249 2.51453C10.2229 2.94811 10.1993 3.87093 10.0874 4.10662C10.0034 4.28363 9.5493 4.7095 8.78508 5.40666C8.39269 5.76462 7.94573 6.07981 7.24362 6.49832C6.5415 6.91683 5.58619 7.41601 4.87189 7.85175C4.15759 8.28749 3.27042 8.94013 2.96462 9.2003M2.0546 11.7029C1.95739 12.2443 1.88012 12.6083 1.76541 13.2667C1.65071 13.9251 1.52712 14.3889 1.39978 14.8667" stroke="#09543D" stroke-linecap="round"/>
<path d="M10.2325 4.17566C10.2606 4.22735 10.4703 4.47374 11.039 4.93214C11.4419 5.25691 12.1299 5.70022 12.861 6.1048C13.5922 6.50938 14.3591 6.84428 14.8315 7.06304C15.4668 7.35721 15.6522 7.49963 15.7739 7.63693C16.0184 7.91298 16.1699 8.15214 16.4632 8.89698M16.8424 11.2479C16.8155 11.6535 16.788 12.5348 16.7545 12.7911C16.7211 13.0475 16.717 13.1643 16.7129 13.2846" stroke="#09543D" stroke-linecap="round"/>
<path d="M7.51538 13.9376C7.52244 13.9816 7.65981 14.1831 7.99948 14.4241C8.24088 14.5954 8.76993 14.6782 9.4666 14.766C9.8121 14.8095 10.1474 14.7929 10.5433 14.7353C10.9392 14.6778 11.3871 14.5648 11.7044 14.4705C12.0216 14.3762 12.1946 14.3039 12.4418 14.1695" stroke="#09543D" stroke-linecap="round"/>
<path d="M7.13752 8.4172C7.13752 8.41612 7.13752 8.41505 7.13752 8.51101C7.13752 8.60697 7.13752 8.8 7.13601 8.85276C7.1345 8.90553 7.13148 8.81218 7.12259 8.68103C7.1137 8.54989 7.09904 8.38377 7.0916 8.3043C7.08415 8.22483 7.08436 8.23704 7.09443 8.32659C7.1045 8.41614 7.12443 8.58266 7.1415 8.67187C7.15857 8.76109 7.17219 8.76794 7.19119 8.77134C7.2102 8.77474 7.23418 8.77447 7.34143 8.75354C7.44868 8.73261 7.63847 8.69103 7.73096 8.66984C7.82346 8.64864 7.81291 8.6491 7.76636 8.66029C7.63708 8.69137 7.51739 8.73039 7.47272 8.75753C7.4593 8.76568 7.48167 8.78087 7.61244 8.79772C7.7432 8.81457 7.98603 8.83734 8.06451 8.8638C8.11932 8.88229 7.89227 8.98065 7.78976 9.03341C7.69581 9.08176 7.66737 9.1338 7.65945 9.16669C7.6497 9.20715 7.77945 9.18781 7.88144 9.16726C7.99071 9.14525 8.06424 9.07297 8.0858 9.05276C8.09204 9.04691 8.08288 9.04506 8.06677 9.05317C8.02434 9.0745 7.96289 9.13165 7.88213 9.21292C7.83855 9.25678 7.79482 9.31092 7.75556 9.36411C7.7163 9.41729 7.68414 9.46913 7.65111 9.53899C7.61808 9.60886 7.58515 9.69519 7.56518 9.76023C7.5331 9.86475 7.53303 9.91993 7.53741 9.93634C7.53918 9.94299 7.55047 9.94086 7.55823 9.93289C7.57717 9.91341 7.58376 9.86826 7.60146 9.83252C7.60877 9.81777 7.63653 9.82986 7.77118 9.93153C7.90583 10.0332 8.15263 10.2292 8.1636 10.2571C8.17457 10.2851 7.94224 10.139 7.82506 10.0669C7.70788 9.99477 7.71289 10.0009 7.77076 10.0468C7.82863 10.0926 7.93921 10.178 7.86417 10.139C7.78913 10.1 7.52513 9.934 7.36914 9.83209C7.17003 9.702 7.1265 9.65534 7.12185 9.64226C7.12017 9.63756 7.12993 9.63589 7.13729 9.6426C7.18651 9.68745 7.14492 9.79952 7.06156 9.97109C6.997 10.104 6.86632 10.3192 6.84088 10.3821C6.81544 10.445 6.89385 10.3462 6.93418 10.2994C6.97451 10.2526 6.97439 10.2607 6.9565 10.3107C6.9386 10.3608 6.90294 10.4524 6.89056 10.4744C6.87818 10.4964 6.89016 10.446 6.99856 10.1938C7.10696 9.94167 7.31141 9.48933 7.41981 9.25146C7.52821 9.01359 7.53435 9.0039 7.53735 9.00478C7.54972 9.00836 7.531 9.06098 7.49259 9.16148C7.42406 9.3408 7.35387 9.4547 7.34143 9.45617C7.30362 9.46064 7.34195 9.29363 7.36549 9.1398C7.37409 9.08363 7.36915 9.07097 7.35827 9.06661C7.3474 9.06226 7.32902 9.06634 7.20971 9.15462C7.0904 9.24289 6.87072 9.41522 6.76138 9.49952C6.65203 9.58381 6.6597 9.57485 6.6862 9.55164C6.75666 9.48992 6.81245 9.44846 6.82281 9.44695C6.86423 9.4409 6.75669 9.58983 6.73261 9.67244C6.72392 9.70223 6.73267 9.73248 6.74512 9.75549C6.75701 9.77749 6.79026 9.77896 6.81874 9.77975C6.84558 9.7805 6.86877 9.77209 6.88637 9.75655C6.89582 9.74821 6.89921 9.73232 6.89765 9.71331C6.89408 9.66996 6.84498 9.61494 6.76378 9.54523C6.71793 9.50587 6.65715 9.46507 6.59026 9.42413C6.52336 9.38318 6.45077 9.34503 6.34734 9.3074C6.2439 9.26978 6.11181 9.23383 6.14438 9.22265C6.17696 9.21148 6.3782 9.22615 6.38761 9.24378C6.39702 9.26141 6.2085 9.28155 6.10766 9.29186C6.00683 9.30217 5.99939 9.30205 6.0015 9.29772C6.00361 9.29338 6.01548 9.28485 6.15827 9.20846C6.30105 9.13207 6.57439 8.98808 6.72016 8.91208C6.86594 8.83607 6.87587 8.8324 6.88611 8.82862" stroke="#FECA05" stroke-width="0.762489" stroke-linecap="round"/>
<path d="M8.03697 9.61941C8.03697 9.61868 8.03697 9.61796 8.21914 9.82875C8.40131 10.0395 8.76564 10.4619 8.9303 10.6754C9.09497 10.8889 9.04894 10.8808 8.77703 10.8174C8.50513 10.7539 8.00874 10.6352 7.74138 10.5693C7.45071 10.4939 7.40969 10.4755 7.36677 10.4556C7.34087 10.4443 7.3066 10.4304 7.26709 10.4103" stroke="#FECA05" stroke-width="0.62499" stroke-linecap="round"/>
<path d="M6.38985 9.9264C6.38913 9.92567 6.3884 9.92495 6.36886 10.2759C6.34931 10.6269 6.31098 11.3297 6.29479 11.6825C6.2786 12.0352 6.28572 12.0167 6.46649 11.7603C6.64725 11.504 7.00145 11.0102 7.36798 10.4958" stroke="#FECA05" stroke-width="0.62499" stroke-linecap="round"/>
<path d="M7.86397 8.56366C7.86325 8.56436 7.86252 8.56507 8.09438 8.56578C8.32624 8.56649 8.7907 8.5672 9.01582 8.5815C9.24093 8.5958 9.21261 8.62367 9.00226 8.80319C8.7919 8.98271 8.40035 9.31304 7.99694 9.65337" stroke="#FECA05" stroke-width="0.62499" stroke-linecap="round"/>
<path d="M6.43032 8.69391C6.43172 8.69391 6.39774 8.70202 6.09074 8.83363C5.81595 8.95143 5.30965 9.19575 5.0566 9.32212C4.80354 9.44849 4.82166 9.45537 5.06816 9.5055C5.31465 9.55563 5.78899 9.64879 6.2777 9.74478" stroke="#FECA05" stroke-width="0.62499" stroke-linecap="round"/>
<path d="M6.69385 8.6591C6.69385 8.6525 6.69642 8.37691 6.71723 7.88158C6.72663 7.6579 6.76931 7.49262 6.80034 7.41675C6.83138 7.34088 6.8586 7.35998 7.01295 7.55141C7.1673 7.74283 7.44796 8.106 7.73713 8.48017" stroke="#FECA05" stroke-width="0.62499" stroke-linecap="round"/>
<path d="M12.6125 8.217C12.6125 8.21593 12.6125 8.21485 12.6125 8.31081C12.6125 8.40678 12.6125 8.5998 12.611 8.65257C12.6095 8.70533 12.6065 8.61199 12.5976 8.48084C12.5887 8.34969 12.574 8.18358 12.5666 8.10411C12.5591 8.02464 12.5593 8.03684 12.5694 8.12639C12.5795 8.21594 12.5994 8.38247 12.6165 8.47168C12.6335 8.56089 12.6472 8.56775 12.6662 8.57114C12.6852 8.57454 12.7092 8.57428 12.8164 8.55335C12.9237 8.53242 13.1134 8.49084 13.2059 8.46964C13.2984 8.44845 13.2879 8.4489 13.2413 8.4601C13.1121 8.49118 12.9924 8.53019 12.9477 8.55733C12.9343 8.56549 12.9567 8.58067 13.0874 8.59752C13.2182 8.61437 13.461 8.63714 13.5395 8.66361C13.5943 8.68209 13.3672 8.78046 13.2647 8.83321C13.1708 8.88156 13.1423 8.9336 13.1344 8.96649C13.1247 9.00695 13.2544 8.98761 13.3564 8.96707C13.4657 8.94506 13.5392 8.87278 13.5608 8.85256C13.567 8.84672 13.5579 8.84487 13.5417 8.85297C13.4993 8.87431 13.4379 8.93145 13.3571 9.01272C13.3135 9.05658 13.2698 9.11073 13.2305 9.16391C13.1913 9.21709 13.1591 9.26893 13.1261 9.3388C13.0931 9.40867 13.0601 9.49499 13.0402 9.56004C13.0081 9.66456 13.008 9.71974 13.0124 9.73615C13.0142 9.74279 13.0254 9.74067 13.0332 9.73269C13.0521 9.71322 13.0587 9.66806 13.0764 9.63232C13.0837 9.61758 13.1115 9.62967 13.2462 9.73133C13.3808 9.83299 13.6276 10.029 13.6386 10.0569C13.6496 10.0849 13.4172 9.93885 13.3 9.86671C13.1829 9.79458 13.1879 9.80074 13.2457 9.84659C13.3036 9.89244 13.4142 9.97779 13.3391 9.93878C13.2641 9.89977 13.0001 9.73381 12.8441 9.63189C12.645 9.50181 12.6015 9.45515 12.5968 9.44207C12.5952 9.43736 12.6049 9.4357 12.6123 9.44241C12.6615 9.48725 12.6199 9.59933 12.5365 9.77089C12.472 9.90378 12.3413 10.119 12.3159 10.1819C12.2904 10.2448 12.3688 10.146 12.4092 10.0992C12.4495 10.0524 12.4494 10.0605 12.4315 10.1105C12.4136 10.1606 12.3779 10.2523 12.3655 10.2743C12.3532 10.2963 12.3651 10.2458 12.4735 9.99364C12.5819 9.74147 12.7864 9.28913 12.8948 9.05127C13.0032 8.8134 13.0093 8.80371 13.0123 8.80458C13.0247 8.80816 13.006 8.86078 12.9676 8.96129C12.899 9.14061 12.8288 9.2545 12.8164 9.25597C12.7786 9.26044 12.8169 9.09343 12.8405 8.9396C12.8491 8.88343 12.8441 8.87077 12.8332 8.86642C12.8224 8.86206 12.804 8.86615 12.6847 8.95442C12.5654 9.04269 12.3457 9.21503 12.2364 9.29932C12.127 9.38362 12.1347 9.37465 12.1612 9.35144C12.2316 9.28973 12.2874 9.24826 12.2978 9.24675C12.3392 9.2407 12.2317 9.38963 12.2076 9.47224C12.1989 9.50204 12.2076 9.53229 12.2201 9.5553C12.232 9.57729 12.2652 9.57876 12.2937 9.57956C12.3206 9.5803 12.3437 9.5719 12.3613 9.55636C12.3708 9.54802 12.3742 9.53212 12.3726 9.51311C12.3691 9.46976 12.32 9.41474 12.2388 9.34503C12.1929 9.30567 12.1321 9.26487 12.0652 9.22393C11.9983 9.18299 11.9257 9.14484 11.8223 9.10721C11.7189 9.06958 11.5868 9.03364 11.6194 9.02246C11.6519 9.01128 11.8532 9.02596 11.8626 9.04359C11.872 9.06122 11.6835 9.08135 11.5826 9.09166C11.4818 9.10198 11.4744 9.10185 11.4765 9.09752C11.4786 9.09319 11.4905 9.08465 11.6332 9.00826C11.776 8.93187 12.0494 8.78789 12.1951 8.71188C12.3409 8.63587 12.3508 8.6322 12.3611 8.62842" stroke="#FECA05" stroke-width="0.762489" stroke-linecap="round"/>
<path d="M13.512 9.41927C13.512 9.41855 13.512 9.41782 13.6941 9.62861C13.8763 9.8394 14.2406 10.2617 14.4053 10.4752C14.5699 10.6888 14.5239 10.6807 14.252 10.6172C13.9801 10.5537 13.4837 10.4351 13.2164 10.3692C12.9257 10.2937 12.8847 10.2754 12.8417 10.2555C12.8158 10.2441 12.7816 10.2303 12.7421 10.2101" stroke="#FECA05" stroke-width="0.62499" stroke-linecap="round"/>
<path d="M11.8648 9.7262C11.8641 9.72548 11.8634 9.72475 11.8438 10.0757C11.8243 10.4267 11.786 11.1295 11.7698 11.4823C11.7536 11.835 11.7607 11.8166 11.9415 11.5602C12.1222 11.3038 12.4764 10.81 12.843 10.2956" stroke="#FECA05" stroke-width="0.62499" stroke-linecap="round"/>
<path d="M13.3388 8.36353C13.3381 8.36423 13.3374 8.36493 13.5692 8.36565C13.8011 8.36636 14.2656 8.36706 14.4907 8.38136C14.7158 8.39566 14.6875 8.42354 14.4771 8.60306C14.2667 8.78258 13.8752 9.1129 13.4718 9.45324" stroke="#FECA05" stroke-width="0.62499" stroke-linecap="round"/>
<path d="M11.9053 8.49371C11.9067 8.49371 11.8727 8.50183 11.5657 8.63343C11.2909 8.75123 10.7846 8.99555 10.5316 9.12193C10.2785 9.2483 10.2966 9.25518 10.5431 9.3053C10.7896 9.35543 11.264 9.4486 11.7527 9.54459" stroke="#FECA05" stroke-width="0.62499" stroke-linecap="round"/>
<path d="M12.1687 8.4589C12.1687 8.45231 12.1713 8.17671 12.1921 7.68138C12.2015 7.4577 12.2442 7.29243 12.2752 7.21656C12.3062 7.14068 12.3334 7.15979 12.4878 7.35121C12.6422 7.54264 12.9228 7.9058 13.212 8.27997" stroke="#FECA05" stroke-width="0.62499" stroke-linecap="round"/>
</svg>
